<?xml version="1.0" encoding="utf-8"?>
<!-- Generator: Adobe Illustrator 15.0.0, SVG Export Plug-In . SVG Version: 6.00 Build 0)  -->
<!DOCTYPE svg PUBLIC "-//W3C//DTD SVG 1.1//EN" "http://www.w3.org/Graphics/SVG/1.1/DTD/svg11.dtd">
<svg version="1.1" id="Layer_1" xmlns="http://www.w3.org/2000/svg" xmlns:xlink="http://www.w3.org/1999/xlink" x="0px" y="0px"
	 width="280px" height="80px" viewBox="0 0 280 80" enable-background="new 0 0 280 80" xml:space="preserve">
<g>
	<path fill="#FFFFFF" d="M140.582,22.752c-0.097-1.193-2.824-2.322-5.611-2.322c-0.235,0-0.462,0.008-0.681,0.027
		c-1.072,0.086-1.704,0.41-1.938,0.686c-4.62,6.667-4.828,30.227-4.831,30.464l-0.019,3.024l-1.296-2.732
		c-3.219-6.791-4.966-13.599-5.66-22.077c-0.06-0.724-0.354-1.204-1.601-1.204c-0.138,0-0.284,0.008-0.435,0.019
		c-2.127,0.176-5.092,1.698-6.475,3.327c-2.422,2.856-2.381,16.168-2.16,21.056l0.165,3.696l-1.488-3.386
		c-4.512-10.255-5.43-17.054-5.87-20.321c-0.064-0.473-0.119-0.875-0.173-1.21c-0.229-1.474-1.069-2.13-1.801-2.13
		c-1.269,0.097-3.834,1.622-5.381,3.445c-0.619,0.727-1.336,1.809-1.253,2.832c0.351,4.305,2.419,11.451,5.03,17.384l0.708,1.548
		h0.003c2.589,5.451,5.244,8.697,7.112,8.697c2.022-0.162,4.596-2.063,5.816-3.362c0.802-1.026,0.737-3.945,0.669-7.034
		c-0.046-2.201-0.1-4.693,0.16-6.982l0.346-3.072l0.994,2.93c0.594,1.749,1.207,3.672,1.831,5.627c1.99,6.25,5,15.695,6.81,15.695
		c1.795-0.146,4.353-1.773,5.63-3.202c0.964-1.207,2.263-8.902,3.21-14.524l0.076-0.439c2.433-14.414,5.473-20.511,7.104-23.789
		C140.23,24.103,140.627,23.306,140.582,22.752z"/>
	<path fill="#FFFFFF" d="M96.05,55.379c-0.497,0.014-0.802,0.553-1.258,1.428c-0.635,1.221-1.507,2.893-3.745,2.959l-0.17,0.004
		c-1.237,0-5.282-0.498-5.474-6.869c-0.184-5.974,2.409-10.256,4.302-13.385c0.912-1.505,1.698-2.804,1.674-3.59
		c-0.092-2.98-1.747-5.786-2.965-5.786c-0.626,0.017-1.382,0.867-2.26,1.853c-1.515,1.704-3.591,4.037-7.242,5.058l-1.04,0.292
		l0.17-1.064c0.27-1.69,0.396-3.41,0.351-4.844c-0.113-3.691-0.988-4.415-2.457-4.415l-0.124,0.003
		c-1.191,0.035-2.959,1.234-4.398,2.98c-1.655,2.012-2.571,4.314-2.509,6.318c0.051,1.696,0.594,3.98,2.881,5.225l0.786,0.43
		l-0.61,0.65c-1.145,1.221-2.541,2.042-4.267,2.512l-0.78,0.213l-0.086-0.805c-0.751-6.839-3.127-12.193-5.411-12.193
		c-0.818,0.023-1.631,0.334-2.698,0.77l-0.343,0.141l-0.308-0.209c-0.156-0.107-0.78-0.459-2.136-0.459L55.69,32.6
		c-3.229,0.098-6.588,1.779-8.983,4.498c-3.165,3.595-4.733,8.933-4.534,15.44c0.178,5.916,4.58,14.108,12.38,14.108l0.354-0.006
		c7.196-0.219,11.848-6.766,12.143-17.092l0.016-0.562l0.554-0.101c3.675-0.658,6.51-2.791,8.433-6.342l0.17-0.316l0.356-0.041
		c3.222-0.383,6.392-1.611,6.424-1.622l2.53-0.991l-1.75,2.079c-1.696,2.012-7.209,9.092-7.007,15.739
		c0.124,4.01,2.562,8.298,9.038,8.298l0.448-0.008c8.459-0.257,10.927-6.851,10.871-8.692C97.108,56.216,96.69,55.379,96.05,55.379z
		 M56.204,61.346h-0.011h-0.054c-2.411,0-5.117-3.615-5.36-11.551c-0.189-6.225,1.491-10.961,4.609-12.994l1.836-1.198l-0.816,2.033
		c-0.146,0.362-0.2,1.18-0.162,2.427c0.089,2.877,1.609,5.728,3.966,7.439l0.24,0.173l0.041,0.297c0.1,0.762,0.122,1.456,0.146,2.19
		l0.008,0.207C60.813,55.76,59.5,61.243,56.204,61.346z"/>
	<path fill="#FFFFFF" d="M45.622,32.113c-0.041-1.037-0.783-1.509-1.453-1.509c-0.148,0-0.297,0.021-0.438,0.064
		c-1.223,0.37-1.763,0.621-2.335,0.889c-1.199,0.556-2.331,1.083-9.059,2.476l-5.73,1.167l-0.861,0.175l0.032-0.88
		c0.141-3.653,0.297-6.804,0.432-9.515c0.154-3.082,0.275-5.515,0.313-7.516l0.008-0.475l0.451-0.162
		c2.46-0.883,6.332-2.206,11.538-3.519c2.771-0.71,5.471-1.226,7.855-1.679c4.063-0.778,8.268-1.58,8.222-2.779
		c-0.016-0.465-0.07-1.879-4.887-1.879c-0.362,0-0.74,0.008-1.137,0.023c-7.903,0.301-15.272,1.181-21.312,2.55l-0.47,0.104
		l-0.262-0.402c-0.538-0.817-1.658-1.325-2.39-1.325c-2.846,0.105-7.668,3.144-8.806,5.514c-0.227,0.376-0.343,0.767-0.459,1.507
		l-0.027,0.176l-0.108,0.137c-0.594,0.773-2.106,1.729-4.52,3.225c-1.858,1.152-5.09,3.156-5.951,4.291
		c1.558-0.111,4.971-0.927,6.672-1.334c1.115-0.265,1.304-0.309,1.442-0.313c0.346-0.014,0.867-0.032,1.18-0.105l0.837-0.196
		l0.014,0.857l0.046,2.363c0.075,3.834,0.181,9.084,0.116,13.52l-0.008,0.497l-0.473,0.151c-2.892,0.926-2.865,1.611-2.824,2.651
		c0,0.005,0.089,0.519,2.611,0.905l0.591,0.088l-0.005,0.603c-0.054,5.298-0.167,10.385-0.27,14.876
		c-0.129,5.848-0.235,10.469-0.143,12.926c0.132,3.437,0.721,3.701,1.539,3.701C19.349,73.82,22.216,73,23.99,71.59
		c1.394-1.109,1.855-2.397,1.823-3.234c-0.146-3.934-0.591-17.203-0.275-24.944L25.5,42.594l-0.03-0.694l0.694-0.027
		c1.701-0.064,3.33-0.202,4.903-0.335l1.62-0.132c8.436-0.767,8.67-1.194,8.9-1.604c0.111-0.202,0.265-0.48,0.605-0.785
		C43.564,37.758,45.694,34.088,45.622,32.113z"/>
	<path fill="#FFFFFF" d="M273.793,52.105c-0.481,0-0.773,0.428-1.321,1.402c-0.669,1.19-1.59,2.824-3.86,2.824
		c-1.197-0.003-5.074-0.516-5.063-7.045c0.008-5.965,2.584-10.161,4.464-13.226c0.906-1.478,1.689-2.755,1.692-3.548
		c0.003-1.455-0.364-2.984-1.005-4.193c-0.553-1.04-1.241-1.688-1.795-1.688c-0.659,0-1.664,0.854-2.824,1.841
		c-1.866,1.588-4.42,3.762-8.109,4.688l-0.993,0.25l0.141-1.018c0.313-2.23,0.364-3.961,0.367-4.793
		c0.003-1.649-0.173-2.752-0.551-3.47c-0.373-0.704-0.956-1.021-1.885-1.021c-2.522,0-7.204,4.663-7.207,9.07
		c-0.005,3.162,1.661,5.365,4.461,5.895l0.688,0.132l-0.141,0.687c-1.769,8.686-5.849,17.969-12.002,17.969
		c-3.713,0-6.17-2.047-7.518-6.254l-0.211-0.661l0.662-0.208c5.743-1.798,11.93-6.736,11.938-13.328
		c0.008-4.16-2.39-8.359-7.758-8.37c-7.51,0-13.619,8.157-13.633,18.183c-0.003,1.949,0.272,3.824,0.836,5.73l0.098,0.326
		l-0.197,0.275c-0.213,0.292-0.407,0.667-0.615,1.064c-0.61,1.172-1.369,2.633-3.089,2.633c-1.745-0.004-2.274-1.975-2.446-2.623
		c-0.438-1.633-0.648-4.225-0.641-7.924c0.009-4.842,1.748-17.57,3.02-26.861c0.683-4.99,1.271-9.3,1.271-10.127
		c0.006-1.758-1.264-2.227-1.936-2.229c-1.947,0-5.347,2.43-6.387,4.563c-0.553,1.261-1.873,12.848-2.371,17.208l-0.118,1.056
		l-0.918-0.537c-0.607-0.356-1.723-0.783-3.589-0.786c-4.588,0-13.25,4.075-13.273,19.495c-0.006,1.966,0.245,4.008,0.729,5.902
		l0.07,0.279l-0.148,0.248c-0.678,1.129-1.629,2.284-3.543,2.284c-0.91,0-2.211-0.224-3.283-1.299
		c-1.186-1.188-1.782-3.124-1.773-5.749c0.005-5.965,2.581-10.16,4.463-13.223c0.904-1.477,1.688-2.752,1.69-3.548
		c0.003-3.24-1.693-5.878-2.803-5.881c-0.656,0-1.658,0.848-2.816,1.831c-1.88,1.59-4.452,3.771-8.19,4.697l-0.953,0.238
		l0.098-0.978l0.17-1.62c0.151-1.415,0.271-2.535,0.273-3.199c0.002-3.737-0.959-4.49-2.514-4.494c-2.512,0-7.193,4.664-7.202,9.073
		c-0.005,3.194,1.745,5.425,4.68,5.97l0.656,0.125l-0.101,0.658c-1.15,7.631-3.213,13.604-5.662,16.393
		c-0.162,0.191-0.337,0.365-0.516,0.537l-0.081,0.079l-0.167,0.11c-0.338,0.156-0.697,0.238-1.072,0.238
		c-1.738,0-2.266-1.975-2.441-2.623c-0.434-1.627-0.645-4.22-0.645-7.922c0.011-4.854,0.734-8.865,1.261-11.795
		c0.289-1.598,0.519-2.864,0.519-3.674c0.006-1.617-1.183-2.229-1.931-2.23c-1.239,0-3.251,1.053-4.779,2.503l-0.691,0.655
		l-0.407-0.861c-0.737-1.552-2.369-2.309-4.99-2.313c-4.59,0-13.255,4.075-13.282,19.498c-0.005,5.382,1.971,14.489,9.432,14.5
		c2.765,0,5.446-1.215,7.368-3.335l0.613-0.675l0.483,0.77c1.345,2.13,3.589,3.259,6.489,3.265c3.631,0,5.768-2.149,6.92-3.953
		c3.365-4.467,5.52-13.045,6.74-19.466l0.094-0.499l0.506-0.057c3.132-0.354,6.518-1.205,6.55-1.213l2.279-0.575l-1.604,1.718
		c-1.784,1.912-6.686,9.254-6.695,16.004c-0.004,2.306,0.828,4.277,2.405,5.703c1.715,1.549,4.247,2.37,7.32,2.375
		c4.114,0,6.599-2.189,7.966-4.028l0.6-0.81l0.539,0.855c1.672,2.654,3.959,4.005,6.803,4.013c2.762,0,5.445-1.218,7.373-3.337
		l0.611-0.673l0.485,0.77c1.32,2.099,3.626,3.257,6.489,3.265c4.619,0,6.828-3.424,7.732-5.465l0.494-1.115l0.702,0.998
		c2.538,3.611,6.389,5.604,10.845,5.614c11.381,0,16.139-14.675,17.961-23.424l0.103-0.491l0.497-0.055
		c3.129-0.351,6.594-1.204,6.626-1.212l2.19-0.546l-1.51,1.678c-2.098,2.33-6.696,9.599-6.702,16.014
		c-0.005,2.142,0.734,4.016,2.136,5.422c1.73,1.734,4.354,2.654,7.588,2.658c2.76,0,5.092-0.945,6.955-2.812
		c2.033-2.036,2.876-4.604,2.873-5.527C274.851,52.962,274.445,52.108,273.793,52.105z M152.945,41.051
		c-0.229,3.357-0.445,6.812-0.451,9.367c0.004,0.432,0.006,0.772,0.111,1.092l0.07,0.213l-0.067,0.216
		c-0.589,1.833-1.677,4.271-4.315,4.271h-0.002c-1.513-0.003-4.048-1.474-4.029-11.276c0.008-3.998,1.109-11.557,5.23-11.557
		c0.745,0,1.283,0.179,1.65,0.549c0.34,0.343,0.504,0.823,0.499,1.466c-0.003,0.638-0.184,1.351-0.359,2.042
		c-0.148,0.58-0.3,1.18-0.3,1.598c0,0.467,0.095,0.8,0.287,0.991c0.191,0.192,0.523,0.289,0.988,0.289h0.739L152.945,41.051z
		 M208.54,41.156c-0.376,4.426-0.665,7.855-0.665,9.352c0,0.426,0,0.771,0.105,1.096l0.07,0.217l-0.067,0.213
		c-0.378,1.166-1.377,4.264-4.304,4.264h-0.008c-0.436,0-1.089-0.139-1.75-0.8c-1.523-1.525-2.29-5.049-2.285-10.477
		c0.012-3.996,1.121-11.552,5.23-11.552c1.412,0,2.155,0.694,2.155,2.004c-0.003,0.646-0.184,1.361-0.362,2.053
		c-0.148,0.58-0.303,1.182-0.303,1.598c0,0.316,0,1.28,1.496,1.283l0.751,0.002L208.54,41.156z M230.508,45.766
		c-0.075-0.478-0.075-0.945-0.075-1.441c0.006-5.408,1.399-10.809,4.499-10.809c2.127,0.002,3.094,2.292,3.094,4.417
		c-0.005,3.335-2.136,6.06-6.516,8.335l-0.85,0.443L230.508,45.766z"/>
</g>
</svg>
